<svg xmlns="http://www.w3.org/2000/svg" viewBox="0 0 24 16" role="img" aria-labelledby="title"><title>United States</title><path fill="#fff" d="M0 0h24v16H0z"/><path fill="#b22234" d="M0 0h24v1.23H0zm0 2.46h24v1.23H0zm0 2.46h24v1.23H0zm0 2.46h24v1.23H0zm0 2.46h24v1.23H0zm0 2.46h24v1.23H0zm0 2.46h24v.23H0z"/><path fill="#3c3b6e" d="M0 0h10.5v8.62H0z"/><g fill="#fff"><circle cx="1.5" cy="1.4" r=".35"/><circle cx="3.5" cy="1.4" r=".35"/><circle cx="5.5" cy="1.4" r=".35"/><circle cx="7.5" cy="1.4" r=".35"/><circle cx="9.5" cy="1.4" r=".35"/><circle cx="2.5" cy="2.7" r=".35"/><circle cx="4.5" cy="2.7" r=".35"/><circle cx="6.5" cy="2.7" r=".35"/><circle cx="8.5" cy="2.7" r=".35"/><circle cx="1.5" cy="4" r=".35"/><circle cx="3.5" cy="4" r=".35"/><circle cx="5.5" cy="4" r=".35"/><circle cx="7.5" cy="4" r=".35"/><circle cx="9.5" cy="4" r=".35"/><circle cx="2.5" cy="5.3" r=".35"/><circle cx="4.5" cy="5.3" r=".35"/><circle cx="6.5" cy="5.3" r=".35"/><circle cx="8.5" cy="5.3" r=".35"/><circle cx="1.5" cy="6.6" r=".35"/><circle cx="3.5" cy="6.6" r=".35"/><circle cx="5.5" cy="6.6" r=".35"/><circle cx="7.5" cy="6.6" r=".35"/><circle cx="9.5" cy="6.6" r=".35"/></g></svg>